<svg width="20" height="20" viewBox="0 0 20 20" fill="none" xmlns="http://www.w3.org/2000/svg">
<circle cx="10" cy="10" r="10" fill="black"/>
<path d="M14.0845 11.6577L14.1353 11.8989C14.1353 12.0005 14.0824 12.1211 13.9766 12.2607C13.6973 12.6247 13.2487 13.0436 12.6309 13.5176C12.0173 13.9873 11.5645 14.2222 11.2725 14.2222C10.9805 14.2222 10.752 14.1375 10.5869 13.9683C10.4219 13.7948 10.3394 13.598 10.3394 13.3779C10.3394 13.1156 10.6144 12.5358 11.1646 11.6387C11.9897 10.3057 13.0435 8.74837 14.3257 6.9668C14.0549 7.24609 13.3354 7.99935 12.1675 9.22656C9.58187 11.9349 8.07113 13.4689 7.63525 13.8286C7.56331 13.8879 7.45752 13.9175 7.31787 13.9175C7.18245 13.9175 7.03857 13.8625 6.88623 13.7524C6.73389 13.6382 6.65771 13.5112 6.65771 13.3716V13.3398C6.67464 13.1621 7.08301 12.2925 7.88281 10.731C8.68262 9.16943 9.35335 7.92741 9.89502 7.00488C9.09521 7.88509 8.28695 8.86686 7.47021 9.9502C5.91715 12.0068 4.78092 13.7588 4.06152 15.2061C3.99805 15.3415 3.91976 15.4092 3.82666 15.4092C3.73356 15.4092 3.59814 15.3859 3.42041 15.3394C3.04801 15.2378 2.86182 15.0601 2.86182 14.8062C2.86182 14.6538 3.17285 14.11 3.79492 13.1748C4.41699 12.2354 5.13851 11.2113 5.95947 10.1025C6.78044 8.98958 7.63102 7.91895 8.51123 6.89062C9.72575 5.46875 10.5065 4.75781 10.8535 4.75781C10.9085 4.75781 10.9614 4.77262 11.0122 4.80225C11.063 4.82764 11.0947 4.84033 11.1074 4.84033C11.1201 4.84033 11.1328 4.83398 11.1455 4.82129C11.2005 4.75358 11.3084 4.71973 11.4692 4.71973C11.6343 4.71973 11.793 4.75146 11.9453 4.81494C12.1019 4.87842 12.1802 4.95036 12.1802 5.03076C12.1802 5.08154 11.9686 5.48568 11.5454 6.24316C10.1278 8.75684 9.17562 10.4834 8.68896 11.4229C9.15446 10.86 9.81885 10.1131 10.6821 9.18213C11.5496 8.25114 12.4595 7.32227 13.4116 6.39551C14.6515 5.19368 15.3921 4.59277 15.6333 4.59277C15.7306 4.59277 15.8534 4.61393 16.0015 4.65625C16.2638 4.73242 16.5156 4.77051 16.7568 4.77051C16.8245 4.7832 16.8817 4.81283 16.9282 4.85938C16.979 4.90169 17.0044 4.94613 17.0044 4.99268C17.0044 5.03923 16.9917 5.07731 16.9663 5.10693C15.591 6.93506 14.4315 8.54736 13.4878 9.94385C12.5441 11.3403 11.9622 12.284 11.7422 12.7749C12.1865 12.6818 12.8488 12.1507 13.729 11.1816C13.7671 11.1309 13.7946 11.097 13.8115 11.0801C13.8285 11.0632 13.8433 11.0462 13.856 11.0293C13.9279 10.9447 13.9829 10.9976 14.021 11.188C14.0379 11.298 14.0485 11.3763 14.0527 11.4229C14.0612 11.4652 14.0675 11.5117 14.0718 11.5625C14.0802 11.609 14.0845 11.6408 14.0845 11.6577Z" fill="#F9F9F9"/>
</svg>
